<svg xmlns="http://www.w3.org/2000/svg" viewBox="0 0 72.39 72"><defs><style>.cls-1{fill:#ffffff;}</style></defs><title>Dinner</title><g id="Capa_2" data-name="Capa 2"><g id="Layer_1" data-name="Layer 1"><g id="Dinner"><path class="cls-1" d="M58.23,7a3,3,0,0,0,3-3c0-1.7-3-4-3-4s-3,2.3-3,4A3,3,0,0,0,58.23,7Z"/><path class="cls-1" d="M14.33,34h43.8a22,22,0,0,0-43.8,0Zm16.4-16.2a.89.89,0,0,1,1.2.7.89.89,0,0,1-.7,1.2,16.89,16.89,0,0,0-9.6,7.4,1.05,1.05,0,0,1-.9.5.75.75,0,0,1-.5-.1,1,1,0,0,1-.3-1.4A19.81,19.81,0,0,1,30.73,17.8Z"/><path class="cls-1" d="M10.23,40h52a2,2,0,1,0,0-4h-52a2,2,0,0,0,0,4Z"/><path class="cls-1" d="M14.23,7a3,3,0,0,0,3-3c0-1.7-3-4-3-4s-3,2.3-3,4A3,3,0,0,0,14.23,7Z"/><path class="cls-1" d="M37.23,10.8a2.91,2.91,0,0,0,2-2.8,3,3,0,0,0-6,0,2.91,2.91,0,0,0,2,2.8V14h2Z"/><path class="cls-1" d="M62.23,34h0V11h-8v9.2A23.94,23.94,0,0,1,60.13,34Z"/><path class="cls-1" d="M18.23,20.2V11h-8V34h2.1A23.4,23.4,0,0,1,18.23,20.2Z"/><path class="cls-1" d="M72.33,63.4,69.23,42h-16l3.2,25.3V68h11.9A4,4,0,0,0,72.33,63.4Z"/><path class="cls-1" d="M3.13,42,0,63.4A4.05,4.05,0,0,0,4,68h11.9v-.7L19.13,42Z"/><path class="cls-1" d="M51.23,42h-30L18,67.5A4,4,0,0,0,22,72h28.5a4,4,0,0,0,4-4.5Z"/></g></g></g></svg>