<svg xmlns="http://www.w3.org/2000/svg" viewBox="0 0 74.3 74.03"><defs><style>.cls-1{fill:#073b4c;}</style></defs><title>Dinner</title><g id="Capa_2" data-name="Capa 2"><g id="Layer_1" data-name="Layer 1"><g id="Dinner"><path class="cls-1" d="M59.15,9a4,4,0,0,0,4-4c0-2-2.8-4.3-3.4-4.8a.89.89,0,0,0-1.2,0c-.6.39-3.4,2.69-3.4,4.8A4,4,0,0,0,59.15,9Zm0-6.7c1.1.9,2,2.09,2,2.7a2,2,0,0,1-4,0C57.15,4.42,58.05,3.32,59.15,2.33Z"/><path class="cls-1" d="M74.25,64.33l-3.1-21.71a3,3,0,0,0-3-2.59H66a3,3,0,0,0,.2-1,2.9,2.9,0,0,0-2-2.8V12a.94.94,0,0,0-1-1h-8a.94.94,0,0,0-1,1v9.5a23,23,0,0,0-16-7.5V12.82a4,4,0,1,0-5-3.9,4.08,4.08,0,0,0,3,3.9V14a23,23,0,0,0-16,7.5V12a.94.94,0,0,0-1-1h-8a.94.94,0,0,0-1,1v24.2a2.91,2.91,0,0,0-2,2.8,3,3,0,0,0,.2,1H6.15a3,3,0,0,0-3,2.59L.05,64.33a4.94,4.94,0,0,0,1.2,4A5,5,0,0,0,5.05,70h13a7.06,7.06,0,0,0,1.1,2.3,4.8,4.8,0,0,0,3.7,1.7h28.5a4.8,4.8,0,0,0,3.7-1.7,4.47,4.47,0,0,0,1.1-2.3h13a5.17,5.17,0,0,0,3.8-1.7A4.7,4.7,0,0,0,74.25,64.33ZM56.15,13h6V36h-2a22.33,22.33,0,0,0-4-11.91Zm-21-4a2,2,0,1,1,2,2A2,2,0,0,1,35.15,9Zm2,7a21.07,21.07,0,0,1,21,20h-42A21.07,21.07,0,0,1,37.15,16Zm-25-3h6V24.12a23.21,23.21,0,0,0-4,11.91h-2Zm-2,26a.94.94,0,0,1,1-1h52a1,1,0,1,1,0,2h-52A1,1,0,0,1,10.15,39ZM2.75,67a3,3,0,0,1-.7-2.41l3.1-21.7a1.06,1.06,0,0,1,1-.9h15.2l-3.3,26h-13A3.12,3.12,0,0,1,2.75,67Zm50.9,4a3.26,3.26,0,0,1-2.2,1H23a2.9,2.9,0,0,1-2.2-1,3.29,3.29,0,0,1-.7-2.41L23.35,42h27.8l3.3,26.59A3.5,3.5,0,0,1,53.65,71Zm17.9-4a2.93,2.93,0,0,1-2.3,1h-13L53,42h15.3a1.06,1.06,0,0,1,1,.9l3.1,21.7A3.19,3.19,0,0,1,71.55,67Z"/><path class="cls-1" d="M21.25,28.43a.9.9,0,0,0,.5.1,1.22,1.22,0,0,0,.9-.5,16.9,16.9,0,0,1,9.6-7.41,1,1,0,1,0-.5-1.9,19.42,19.42,0,0,0-10.7,8.2A1.06,1.06,0,0,0,21.25,28.43Z"/><path class="cls-1" d="M15.15,9a4,4,0,0,0,4-4c0-2-2.8-4.3-3.4-4.8a.89.89,0,0,0-1.2,0c-.6.39-3.4,2.69-3.4,4.8A4,4,0,0,0,15.15,9Zm0-6.7c1.1.9,2,2.09,2,2.7a2,2,0,1,1-4,0C13.15,4.42,14.05,3.32,15.15,2.33Z"/></g></g></g></svg>