<?xml version="1.0" encoding="utf-8"?>
<!-- Generator: Adobe Illustrator 18.0.0, SVG Export Plug-In . SVG Version: 6.00 Build 0)  -->
<!DOCTYPE svg PUBLIC "-//W3C//DTD SVG 1.1//EN" "http://www.w3.org/Graphics/SVG/1.1/DTD/svg11.dtd">
<svg version="1.1" id="Layer_1" xmlns="http://www.w3.org/2000/svg" xmlns:xlink="http://www.w3.org/1999/xlink" x="0px" y="0px"
	 viewBox="0 0 512 512" enable-background="new 0 0 512 512" xml:space="preserve">
<g>
	<g>
		<g>
			<g>
				<path d="M26.3,393.5c0-44.9,0-89.7,0-134.6c0,0,0,0,0,0c-2.5,2.5-5,5-7.5,7.5c24.6,0,49.2,0,73.9,0c9.1,0,18.3,0,27.4,0
					c9.3,0,16.4,7.5,16.6,16.6c0.1,2.3,0,4.5,0,6.8c0,34.6,0,69.2,0,103.8c0,9.7,15,9.7,15,0c0-24,0-48,0-72c0-11.9,0-23.8,0-35.6
					c0-18.2-11.4-32.9-30.2-34.4c-5.4-0.5-11,0-16.5,0c-11.5,0-23,0-34.6,0c-17.2,0-34.4,0-51.7,0c-4.1,0-7.5,3.4-7.5,7.5
					c0,44.9,0,89.7,0,134.6c0,0,0,0,0,0C11.3,403.2,26.3,403.2,26.3,393.5L26.3,393.5z"/>
			</g>
		</g>
		<g>
			<g>
				<path d="M26.3,258.9c0-46.4,0-92.8,0-139.3c0-0.4,0-0.7,0-1.1c0-9.7-15-9.7-15,0c0,46.4,0,92.8,0,139.3c0,0.4,0,0.7,0,1.1
					C11.3,268.6,26.3,268.6,26.3,258.9L26.3,258.9z"/>
			</g>
		</g>
		<g>
			<g>
				<path d="M18.8,300.4c41.8,0,83.6,0,125.4,0c9.7,0,9.7-15,0-15c-41.8,0-83.6,0-125.4,0C9.1,285.4,9.1,300.4,18.8,300.4
					L18.8,300.4z"/>
			</g>
		</g>
	</g>
	<g>
		<g>
			<g>
				<path d="M500.7,393.5c0-44.9,0-89.7,0-134.6c0,0,0,0,0,0c0-4.1-3.4-7.5-7.5-7.5c-24.6,0-49.2,0-73.9,0c-9.1,0-18.3,0-27.4,0
					c-18.7,0-31.6,15.6-31.6,33.5c0,36.2,0,72.4,0,108.6c0,9.7,15,9.7,15,0c0-24,0-48,0-72c0-11.9,0-23.8,0-35.6
					c0-4.6,0.5-8.6,3.2-12.7c3.3-5.1,9.3-6.8,14.9-6.8c33.3,0,66.5,0,99.8,0c-2.5-2.5-5-5-7.5-7.5c0,44.9,0,89.7,0,134.6
					c0,0,0,0,0,0C485.7,403.2,500.7,403.2,500.7,393.5L500.7,393.5z"/>
			</g>
		</g>
		<g>
			<g>
				<path d="M500.7,258.9c0-46.4,0-92.8,0-139.3c0-0.4,0-0.7,0-1.1c0-9.7-15-9.7-15,0c0,46.4,0,92.8,0,139.3c0,0.4,0,0.7,0,1.1
					C485.7,268.6,500.7,268.6,500.7,258.9L500.7,258.9z"/>
			</g>
		</g>
		<g>
			<g>
				<path d="M493.2,285.4c-41.8,0-83.6,0-125.4,0c-9.7,0-9.7,15,0,15c41.8,0,83.6,0,125.4,0C502.9,300.4,502.9,285.4,493.2,285.4
					L493.2,285.4z"/>
			</g>
		</g>
	</g>
	<g>
		<g>
			<path d="M206.8,401c32.8,0,65.6,0,98.5,0c9.7,0,9.7-15,0-15c-32.8,0-65.6,0-98.5,0C197.1,386,197.1,401,206.8,401L206.8,401z"/>
		</g>
	</g>
	<g>
		<g>
			<path d="M272.6,386c-11.1,0-22.2,0-33.3,0c2.5,2.5,5,5,7.5,7.5c0-49.8,0-99.6,0-149.4c0-11.1,0-22.2,0-33.4c-2.5,2.5-5,5-7.5,7.5
				c11.1,0,22.2,0,33.3,0c-2.5-2.5-5-5-7.5-7.5c0,49.8,0,99.6,0,149.4c0,11.1,0,22.2,0,33.4c0,9.7,15,9.7,15,0
				c0-49.8,0-99.6,0-149.4c0-11.1,0-22.2,0-33.4c0-4.1-3.4-7.5-7.5-7.5c-11.1,0-22.2,0-33.3,0c-4.1,0-7.5,3.4-7.5,7.5
				c0,49.8,0,99.6,0,149.4c0,11.1,0,22.2,0,33.4c0,4.1,3.4,7.5,7.5,7.5c11.1,0,22.2,0,33.3,0C282.3,401,282.3,386,272.6,386z"/>
		</g>
	</g>
	<g>
		<g>
			<path d="M338.2,203.2c-49.6,0-99.2,0-148.8,0c-4,0-7.9,0-11.9,0c-2.1,0-4.4,0.3-6.3-0.7c-5.4-2.8-1.8-9.8,3.3-9.8
				c2.6,0,5.2,0,7.9,0c28.1,0,56.1,0,84.2,0c18.7,0,37.4,0,56.2,0c4.7,0,9.4,0,14.1,0c1.3,0,2.3,0,3.6,0.4
				C346.1,194.7,343.3,202.9,338.2,203.2c-9.6,0.5-9.7,15.5,0,15c13.5-0.7,21.8-11.9,19.7-25c-1.5-9.3-11.2-15.5-20.1-15.5
				c-7.3,0-14.6,0-21.8,0c-30.9,0-61.8,0-92.6,0c-12.7,0-25.4,0-38,0c-9.3,0-17.6-0.9-25.4,5.5c-9.9,8.1-7.6,24.9,2.5,31.5
				c4.2,2.7,8.7,3.5,13.5,3.5c9.2,0,18.3,0,27.5,0c44.9,0,89.8,0,134.7,0C347.9,218.2,347.9,203.2,338.2,203.2z"/>
		</g>
	</g>
</g>
</svg>
