<?xml version="1.0" encoding="iso-8859-1"?>
<!-- Generator: Adobe Illustrator 19.0.0, SVG Export Plug-In . SVG Version: 6.00 Build 0)  -->
<svg version="1.1" id="Layer_1" xmlns="http://www.w3.org/2000/svg" xmlns:xlink="http://www.w3.org/1999/xlink" x="0px" y="0px"
	 viewBox="0 0 512 512" style="enable-background:new 0 0 512 512;" xml:space="preserve">
<g>
	<path style="fill:#3C1146;" d="M463.747,368.816H298.874c-7.641,0-13.838-6.197-13.838-13.838c0-7.641,6.197-13.838,13.838-13.838
		h164.874c11.346,0,20.577-9.231,20.577-20.577V71.828c0-11.346-9.231-20.577-20.577-20.577H48.253
		c-11.346,0-20.577,9.231-20.577,20.577v248.735c0,11.346,9.231,20.577,20.577,20.577h164.619c7.641,0,13.838,6.197,13.838,13.838
		c0,7.641-6.197,13.838-13.838,13.838H48.253C21.645,368.816,0,347.169,0,320.563V71.828c0-26.607,21.647-48.253,48.253-48.253
		h415.495c26.607,0,48.253,21.647,48.253,48.253v248.735C512,347.169,490.353,368.816,463.747,368.816z"/>
	<path style="fill:#3C1146;" d="M73.8,165.499c0-2.076,1.578-3.902,3.985-3.902H94.97c11.375,0,20.425,4.234,20.425,17.768
		c0,9.298-4.236,14.611-10.046,16.853l10.128,18.349c0.332,0.498,0.415,1.079,0.415,1.493c0,3.238-4.316,6.725-8.135,6.725
		c-1.661,0-3.238-0.663-4.151-2.406l-11.375-22.085h-5.48v20.01c0,2.657-3.238,3.984-6.476,3.984s-6.476-1.327-6.476-3.984v-52.804
		H73.8z M86.751,172.887v15.442h8.218c4.65,0,7.472-1.908,7.472-7.72c0-5.812-2.823-7.722-7.472-7.722H86.751z"/>
	<path style="fill:#3C1146;" d="M135.239,186.919h12.453c2.492,0,3.902,2.408,3.902,5.065c0,2.24-1.162,4.897-3.902,4.897h-12.453
		v14.115h22.25c2.491,0,3.902,2.657,3.902,5.729c0,2.657-1.162,5.563-3.902,5.563h-29.556c-2.822,0-5.644-1.327-5.644-3.984v-52.722
		c0-2.657,2.823-3.984,5.644-3.984h29.556c2.74,0,3.902,2.906,3.902,5.563c0,3.072-1.413,5.729-3.902,5.729h-22.25V186.919z"/>
	<path style="fill:#3C1146;" d="M191.945,206.012c0-10.045-26.32-8.301-26.32-27.73c0-12.453,10.877-17.185,21.254-17.185
		c4.4,0,16.521,0.832,16.521,7.306c0,2.24-1.494,6.808-5.148,6.808c-2.989,0-4.566-3.155-11.375-3.155
		c-5.895,0-8.303,2.406-8.303,4.982c0,8.303,26.32,6.725,26.32,27.647c0,11.954-8.718,18.431-20.755,18.431
		c-10.877,0-20.01-5.314-20.01-10.794c0-2.823,2.491-6.973,5.646-6.973c3.902,0,6.393,6.143,14.113,6.143
		C187.71,211.493,191.945,209.999,191.945,206.012z"/>
	<path style="fill:#3C1146;" d="M224.242,186.919h12.453c2.492,0,3.902,2.408,3.902,5.065c0,2.24-1.162,4.897-3.902,4.897h-12.453
		v14.115h22.25c2.491,0,3.902,2.657,3.902,5.729c0,2.657-1.162,5.563-3.902,5.563h-29.556c-2.822,0-5.644-1.327-5.644-3.984v-52.722
		c0-2.657,2.823-3.984,5.644-3.984h29.556c2.74,0,3.902,2.906,3.902,5.563c0,3.072-1.413,5.729-3.902,5.729h-22.25V186.919z"/>
	<path style="fill:#3C1146;" d="M256.04,165.499c0-2.076,1.578-3.902,3.985-3.902h17.185c11.375,0,20.425,4.234,20.425,17.768
		c0,9.298-4.236,14.611-10.046,16.853l10.128,18.349c0.332,0.498,0.415,1.079,0.415,1.493c0,3.238-4.316,6.725-8.135,6.725
		c-1.661,0-3.238-0.663-4.151-2.406l-11.375-22.085h-5.48v20.01c0,2.657-3.238,3.984-6.476,3.984s-6.476-1.327-6.476-3.984v-52.804
		H256.04z M268.992,172.887v15.442h8.218c4.65,0,7.472-1.908,7.472-7.72c0-5.812-2.823-7.722-7.472-7.722H268.992z"/>
	<path style="fill:#3C1146;" d="M300.543,167.824c-0.084-0.332-0.166-0.664-0.166-0.913c0-3.073,4.733-5.314,8.301-5.314
		c2.076,0,3.736,0.663,4.236,2.408l11.622,42.59l11.541-42.59c0.498-1.745,2.159-2.408,4.234-2.408c3.57,0,8.303,2.24,8.303,5.314
		c0,0.249-0.084,0.581-0.166,0.913l-15.442,50.644c-0.913,2.906-4.65,4.317-8.469,4.317s-7.555-1.413-8.469-4.317L300.543,167.824z"
		/>
	<path style="fill:#3C1146;" d="M366.382,186.919h12.454c2.491,0,3.901,2.408,3.901,5.065c0,2.24-1.162,4.897-3.901,4.897h-12.454
		v14.115h22.25c2.491,0,3.902,2.657,3.902,5.729c0,2.657-1.162,5.563-3.902,5.563h-29.556c-2.823,0-5.644-1.327-5.644-3.984v-52.722
		c0-2.657,2.822-3.984,5.644-3.984h29.556c2.74,0,3.902,2.906,3.902,5.563c0,3.072-1.413,5.729-3.902,5.729h-22.25V186.919z"/>
	<path style="fill:#3C1146;" d="M418.52,161.597c11.456,0,20.423,5.314,20.423,19.593v21.504c0,14.278-8.966,19.592-20.423,19.592
		h-14.696c-3.404,0-5.644-1.825-5.644-3.901v-52.885c0-2.076,2.24-3.902,5.644-3.902H418.52z M411.13,172.887v38.108h7.389
		c4.648,0,7.471-2.657,7.471-8.301V181.19c0-5.646-2.823-8.303-7.471-8.303L411.13,172.887L411.13,172.887z"/>
</g>
<path style="fill:#D4A8B4;" d="M498.162,71.828v64.457c-2.795,0.277-5.632,0.415-8.496,0.415c-48.723,0-88.368-39.645-88.368-88.368
	c0-3.695,0.221-7.348,0.664-10.918h61.786C482.747,37.413,498.162,52.829,498.162,71.828z"/>
<path style="fill:#3C1146;" d="M489.664,150.538c-56.357,0-102.205-45.849-102.205-102.205c0-4.259,0.26-8.506,0.771-12.624
	c0.861-6.93,6.749-12.133,13.733-12.133h61.785c26.607,0,48.253,21.647,48.253,48.253v64.457c0,7.114-5.393,13.068-12.473,13.77
	C496.298,150.374,492.98,150.538,489.664,150.538z M415.192,51.251c1.471,37.968,31.481,68.742,69.132,71.421V71.828
	c0-11.346-9.231-20.577-20.577-20.577C463.747,51.251,415.192,51.251,415.192,51.251z"/>
<path style="fill:#D4A8B4;" d="M110.703,48.331c0,48.723-39.645,88.368-88.368,88.368c-2.864,0-5.701-0.138-8.496-0.415V71.828
	c0-18.999,15.415-34.415,34.415-34.415h61.786C110.481,40.984,110.703,44.637,110.703,48.331z"/>
<path style="fill:#3C1146;" d="M22.334,150.538c-3.316,0-6.632-0.162-9.861-0.483C5.393,149.353,0,143.397,0,136.285V71.828
	c0-26.607,21.647-48.253,48.253-48.253h61.786c6.984,0,12.872,5.203,13.733,12.133c0.511,4.117,0.769,8.364,0.769,12.623
	C124.541,104.689,78.69,150.538,22.334,150.538z M48.253,51.251c-11.346,0-20.577,9.231-20.577,20.577v50.844
	c37.651-2.68,67.661-33.454,69.132-71.421C96.808,51.251,48.253,51.251,48.253,51.251z"/>
<path style="fill:#D4A8B4;" d="M498.162,256.12v64.443c0,19.013-15.415,34.415-34.415,34.415h-61.786
	c-0.443-3.57-0.664-7.21-0.664-10.904c0-48.737,39.645-88.368,88.368-88.368C492.53,255.705,495.367,255.844,498.162,256.12z"/>
<path style="fill:#3C1146;" d="M463.747,368.816h-61.786c-6.984,0-12.872-5.203-13.733-12.133
	c-0.511-4.118-0.771-8.359-0.771-12.609c0-56.357,45.849-102.206,102.205-102.206c3.3,0,6.615,0.162,9.855,0.482
	c7.082,0.699,12.48,6.656,12.48,13.771v64.443C512,347.169,490.353,368.816,463.747,368.816z M415.192,341.14h48.556
	c11.346,0,20.577-9.231,20.577-20.577v-50.831C446.679,272.41,416.67,303.177,415.192,341.14z"/>
<path style="fill:#D4A8B4;" d="M110.703,344.074c0,3.695-0.221,7.334-0.664,10.904H48.253c-18.999,0-34.415-15.402-34.415-34.415
	V256.12c2.795-0.277,5.632-0.415,8.496-0.415C71.057,255.705,110.703,295.337,110.703,344.074z"/>
<g>
	<path style="fill:#3C1146;" d="M110.038,368.816H48.253C21.645,368.816,0,347.169,0,320.563V256.12
		c0-7.117,5.397-13.073,12.48-13.771c3.241-0.318,6.555-0.482,9.854-0.482c56.357,0,102.206,45.85,102.206,102.206
		c0,4.25-0.26,8.492-0.771,12.609C122.909,363.613,117.021,368.816,110.038,368.816z M27.676,269.731v50.831
		c0,11.346,9.231,20.577,20.577,20.577h48.556C95.33,303.177,65.323,272.41,27.676,269.731z"/>
	<path style="fill:#3C1146;" d="M292.209,487.041c-7.641,0-13.838-6.197-13.838-13.838V405.45c0-7.641,6.197-13.838,13.838-13.838
		c7.641,0,13.838,6.197,13.838,13.838v67.753C306.047,480.845,299.851,487.041,292.209,487.041z"/>
	<path style="fill:#3C1146;" d="M219.791,487.041c-7.641,0-13.838-6.197-13.838-13.838V405.45c0-7.641,6.197-13.838,13.838-13.838
		c7.641,0,13.838,6.197,13.838,13.838v67.753C233.628,480.845,227.432,487.041,219.791,487.041z"/>
	<path style="fill:#3C1146;" d="M346.638,488.424H165.362c-7.641,0-13.838-6.197-13.838-13.838c0-7.641,6.197-13.838,13.838-13.838
		h181.276c7.641,0,13.838,6.197,13.838,13.838C360.476,482.228,354.279,488.424,346.638,488.424z"/>
</g>
<g>
</g>
<g>
</g>
<g>
</g>
<g>
</g>
<g>
</g>
<g>
</g>
<g>
</g>
<g>
</g>
<g>
</g>
<g>
</g>
<g>
</g>
<g>
</g>
<g>
</g>
<g>
</g>
<g>
</g>
</svg>
