<?xml version="1.0" encoding="iso-8859-1"?>
<!-- Generator: Adobe Illustrator 19.0.0, SVG Export Plug-In . SVG Version: 6.00 Build 0)  -->
<svg version="1.1" id="Layer_1" xmlns="http://www.w3.org/2000/svg" xmlns:xlink="http://www.w3.org/1999/xlink" x="0px" y="0px"
	 viewBox="0 0 512 512" style="enable-background:new 0 0 512 512;" xml:space="preserve">
<polygon style="fill:#E6E6E6;" points="503.92,341.175 8.088,341.175 22.002,170.868 489.994,170.868 "/>
<polygon style="fill:#F2F2F2;" points="503.92,341.175 249.396,341.175 278.306,170.868 489.994,170.868 "/>
<path d="M138.418,238.139c4.466,0,8.084-3.62,8.084-8.084c0-4.465-3.618-8.084-8.084-8.084h-23.825c-4.466,0-8.084,3.62-8.084,8.084
	v51.888c0,4.465,3.618,8.084,8.084,8.084h23.825c4.466,0,8.084-3.62,8.084-8.084c0-4.465-3.618-8.084-8.084-8.084h-15.741v-9.774
	h7.132c4.466,0,8.084-3.62,8.084-8.084c0-4.465-3.619-8.084-8.084-8.084h-7.132v-9.775h15.741V238.139z"/>
<path d="M175.806,238.139h12.973c4.466,0,8.084-3.62,8.084-8.084c0-4.465-3.618-8.084-8.084-8.084h-12.973
	c-11.61,0-21.056,9.446-21.056,21.057s9.446,21.057,21.056,21.057c2.696,0,4.888,2.192,4.888,4.887c0,2.695-2.192,4.888-4.888,4.888
	h-12.971c-4.466,0-8.084,3.62-8.084,8.084c0,4.465,3.618,8.084,8.084,8.084h12.971c11.61,0,21.057-9.446,21.057-21.057
	c0-11.61-9.447-21.056-21.057-21.056c-2.695,0-4.887-2.192-4.887-4.888S173.111,238.139,175.806,238.139z"/>
<path d="M239.72,238.139c4.466,0,8.084-3.62,8.084-8.084c0-4.465-3.618-8.084-8.084-8.084h-23.825c-4.466,0-8.084,3.62-8.084,8.084
	v51.888c0,4.465,3.618,8.084,8.084,8.084h23.825c4.466,0,8.084-3.62,8.084-8.084c0-4.465-3.618-8.084-8.084-8.084H223.98v-9.774
	h7.132c4.466,0,8.084-3.62,8.084-8.084c0-4.465-3.618-8.084-8.084-8.084h-7.132v-9.775h15.741V238.139z"/>
<path d="M401.343,238.139c4.466,0,8.084-3.62,8.084-8.084c0-4.465-3.618-8.084-8.084-8.084h-23.825c-4.466,0-8.084,3.62-8.084,8.084
	v51.888c0,4.465,3.618,8.084,8.084,8.084h23.825c4.466,0,8.084-3.62,8.084-8.084c0-4.465-3.618-8.084-8.084-8.084h-15.741v-9.774
	h7.134c4.466,0,8.084-3.62,8.084-8.084c0-4.465-3.618-8.084-8.084-8.084h-7.134v-9.775h15.741V238.139z"/>
<path d="M82.179,290.029c1.283,0,2.586-0.307,3.799-0.954c3.939-2.102,5.428-7,3.326-10.939l-7.954-14.905
	c6.355-3.934,10.611-10.949,10.611-18.957c0-12.299-10.005-22.304-22.303-22.304H53.443c-4.466,0-8.084,3.62-8.084,8.084v51.888
	c0,4.465,3.618,8.084,8.084,8.084s8.084-3.62,8.084-8.084v-15.364h3.281l10.23,19.171C76.494,288.477,79.289,290.029,82.179,290.029
	z M69.658,250.41h-8.131v-12.271h8.131c3.384,0,6.134,2.752,6.134,6.135C75.792,247.658,73.041,250.41,69.658,250.41z"/>
<path d="M305.355,244.275c0-12.299-10.005-22.304-22.303-22.304h-16.215c-4.466,0-8.084,3.62-8.084,8.084v51.888
	c0,4.465,3.618,8.084,8.084,8.084s8.084-3.62,8.084-8.084v-15.364h3.281l10.23,19.171c1.456,2.727,4.25,4.279,7.14,4.279
	c1.283,0,2.586-0.307,3.798-0.954c3.939-2.102,5.428-7,3.326-10.939l-7.954-14.905C301.099,259.297,305.355,252.282,305.355,244.275
	z M283.052,250.41h-8.131v-12.271h8.131c3.384,0,6.134,2.752,6.134,6.135C289.186,247.658,286.435,250.41,283.052,250.41z"/>
<path d="M348.674,227.198l-12.049,31.88l-12.05-31.88c-1.579-4.176-6.243-6.282-10.42-4.704s-6.283,6.243-4.704,10.42l19.611,51.888
	c1.189,3.144,4.199,5.226,7.563,5.226s6.374-2.081,7.563-5.227l19.61-51.888c1.579-4.177-0.527-8.842-4.704-10.42
	C354.92,220.916,350.254,223.021,348.674,227.198z"/>
<path d="M428.298,221.971c-4.466,0-8.084,3.62-8.084,8.084v51.888c0,4.465,3.618,8.084,8.084,8.084h6.435
	c17.595,0,31.909-14.314,31.909-31.909v-4.239c0-17.595-14.313-31.909-31.909-31.909h-6.435V221.971z M436.382,238.226
	c7.907,0.827,14.09,7.532,14.09,15.654v4.239c0,8.122-6.183,14.828-14.09,15.654V238.226z"/>
<path d="M56.593,333.07H16.855l12.6-154.139h453.089l1.809,22.115c0.364,4.45,4.253,7.769,8.716,7.399
	c4.45-0.363,7.762-4.266,7.398-8.716l-2.414-29.541c-0.342-4.196-3.847-7.426-8.057-7.426H22.005c-4.209,0-7.715,3.23-8.057,7.426
	L0.027,340.495c-0.184,2.251,0.581,4.476,2.113,6.136c1.531,1.661,3.685,2.606,5.945,2.606h48.509c4.466,0,8.084-3.62,8.084-8.084
	C64.677,336.689,61.058,333.07,56.593,333.07z"/>
<path d="M511.973,340.494l-9.575-117.122c-0.363-4.45-4.267-7.761-8.716-7.399c-4.45,0.363-7.762,4.266-7.398,8.716l8.86,108.38
	H83.54c-4.466,0-8.084,3.62-8.084,8.084c0,4.465,3.619,8.084,8.084,8.084h420.377c2.259,0,4.414-0.944,5.945-2.605
	C511.392,344.972,512.157,342.746,511.973,340.494z"/>
<g>
</g>
<g>
</g>
<g>
</g>
<g>
</g>
<g>
</g>
<g>
</g>
<g>
</g>
<g>
</g>
<g>
</g>
<g>
</g>
<g>
</g>
<g>
</g>
<g>
</g>
<g>
</g>
<g>
</g>
</svg>
