<?xml version="1.0" encoding="iso-8859-1"?>
<!-- Generator: Adobe Illustrator 19.0.0, SVG Export Plug-In . SVG Version: 6.00 Build 0)  -->
<svg version="1.1" id="Layer_1" xmlns="http://www.w3.org/2000/svg" xmlns:xlink="http://www.w3.org/1999/xlink" x="0px" y="0px"
	 viewBox="0 0 512 512" style="enable-background:new 0 0 512 512;" xml:space="preserve">
<g>
	<g>
		<path d="M274.597,240.713h-7.768v10.009h8.097c1.58,0,3.226-1.845,3.226-5.004C278.153,242.491,276.177,240.713,274.597,240.713z"
			/>
	</g>
</g>
<g>
	<g>
		<path d="M398.423,240.713h-5.134v24.362h5.134c6.716,0,10.536-5.201,10.536-12.246
			C408.959,245.586,405.008,240.713,398.423,240.713z"/>
	</g>
</g>
<g>
	<g>
		<path d="M110.613,240.713h-7.768v10.009h8.097c1.58,0,3.226-1.845,3.226-5.004C114.169,242.491,112.193,240.713,110.613,240.713z"
			/>
	</g>
</g>
<g>
	<g>
		<path d="M477.605,158.433H34.395L0,353.567h512L477.605,158.433z M116.537,276.268l-8.887-14.352h-4.806v14.352H90.005v-46.747
			h21.463c9.152,0,15.737,8.232,15.737,16.197c0,5.399-2.502,10.402-6.716,13.365l10.536,17.184H116.537z M135.166,276.268v-46.747
			h32.721v11.193h-19.883v6.585h16.986v10.404h-16.986v7.373h20.476v11.192H135.166z M191.255,276.86
			c-6.781,0-14.749-2.172-20.344-5.466l5.531-11.257c0,0,7.835,5.134,15.01,5.134c2.766,0,3.754-0.789,3.754-2.041
			c0-2.699-4.806-3.291-10.404-5.201c-8.229-2.766-11.85-6.255-11.85-13.103c0-10.335,8.229-15.801,17.447-15.801
			c6.78,0,13.298,2.964,17.512,5.07l-5.531,10.599c0,0-6.781-4.279-12.378-4.279c-2.237,0-3.752,0.657-3.752,2.304
			c0,2.436,3.294,2.964,8.69,4.675c8.625,2.699,14.09,5.727,14.09,14.484C209.03,273.239,199.945,276.86,191.255,276.86z
			 M214.688,276.268v-46.747h32.722v11.193h-19.883v6.585h16.986v10.404h-16.986v7.373h20.476v11.192H214.688z M280.521,276.268
			l-8.887-14.352h-4.806v14.352h-12.839v-46.747h21.463c9.152,0,15.737,8.232,15.737,16.197c0,5.399-2.502,10.402-6.716,13.365
			l10.536,17.184H280.521z M320.482,276.268h-10.667l-17.381-46.747h13.562l9.152,30.617l9.02-30.617h13.498L320.482,276.268z
			 M341.15,276.268v-46.747h32.722v11.193h-19.883v6.585h16.986v10.404h-16.986v7.373h20.476v11.192H341.15z M398.423,276.268
			H380.45v-46.747h17.974c15.538,0,23.571,10.404,23.571,23.307C421.995,266.984,412.647,276.268,398.423,276.268z"/>
	</g>
</g>
<g>
</g>
<g>
</g>
<g>
</g>
<g>
</g>
<g>
</g>
<g>
</g>
<g>
</g>
<g>
</g>
<g>
</g>
<g>
</g>
<g>
</g>
<g>
</g>
<g>
</g>
<g>
</g>
<g>
</g>
</svg>
